<svg width="40" height="40" viewBox="0 0 40 40" fill="none" xmlns="http://www.w3.org/2000/svg">
    <path fill-rule="evenodd" clip-rule="evenodd" d="M2.083 4.167c0-.69.56-1.25 1.25-1.25h33.334c.69 0 1.25.56 1.25 1.25v6.667c0 .439-.23.846-.607 1.072l-1.166.699a7.084 7.084 0 0 1-7.288 0l-.523-.314-.522.314a7.084 7.084 0 0 1-7.289 0L20 12.29l-.522.314a7.083 7.083 0 0 1-7.29 0l-.521-.314-.523.314a7.083 7.083 0 0 1-7.288 0l-1.166-.7a1.25 1.25 0 0 1-.607-1.071V4.167zm2.5 1.25v4.709l.559.335c1.451.87 3.265.87 4.716 0l1.165-.7a1.25 1.25 0 0 1 1.287 0l1.165.7c1.452.87 3.265.87 4.716 0l1.166-.7a1.25 1.25 0 0 1 1.286 0l1.165.7c1.452.87 3.265.87 4.717 0l1.165-.7a1.25 1.25 0 0 1 1.286 0l1.166.7c1.451.87 3.265.87 4.716 0l.559-.335V5.417H4.583zM3.75 20.834c0-.69.56-1.25 1.25-1.25h30c.69 0 1.25.56 1.25 1.25v15c0 .69-.56 1.25-1.25 1.25H5c-.69 0-1.25-.56-1.25-1.25v-15zm2.5 1.25v12.5h27.5v-12.5H6.25z" fill="#1C1B1F"/>
    <path fill-rule="evenodd" clip-rule="evenodd" d="M7.5 12.084c.69 0 1.25.56 1.25 1.25v7.5a1.25 1.25 0 0 1-2.5 0v-7.5c0-.69.56-1.25 1.25-1.25zM32.5 12.084c.69 0 1.25.56 1.25 1.25v7.5a1.25 1.25 0 0 1-2.5 0v-7.5c0-.69.56-1.25 1.25-1.25z" fill="#1C1B1F"/>
</svg>
