<svg width="36" height="36" viewBox="0 0 36 36" fill="none" xmlns="http://www.w3.org/2000/svg">
<path d="M18 2.62513C18.4014 2.62513 18.7725 2.83905 18.9736 3.18647L35.4736 31.6865C35.6751 32.0345 35.6755 32.4637 35.4746 32.8121C35.2737 33.1605 34.9022 33.3751 34.5 33.3751H1.5C1.09784 33.3751 0.726259 33.1605 0.525385 32.8121C0.324511 32.4637 0.324897 32.0345 0.526395 31.6865L17.0264 3.18647C17.2275 2.83905 17.5986 2.62513 18 2.62513ZM3.45125 31.1251H32.5487L18 5.99548L3.45125 31.1251Z" fill="#ff4949"/>
<path d="M18 25.1251C18.6213 25.1251 19.125 25.6288 19.125 26.2501V27.0001C19.125 27.6215 18.6213 28.1251 18 28.1251C17.3787 28.1251 16.875 27.6215 16.875 27.0001V26.2501C16.875 25.6288 17.3787 25.1251 18 25.1251Z" fill="#ff4949"/>
<path d="M17.9991 13.1255C18.6204 13.125 19.1245 13.6283 19.125 14.2496L19.1312 21.7492C19.1317 22.3705 18.6285 22.8746 18.0072 22.8751C17.3858 22.8757 16.8817 22.3724 16.8812 21.7511L16.875 14.2515C16.8745 13.6301 17.3777 13.126 17.9991 13.1255Z" fill="#ff4949"/>
</svg>
