<svg width="48" height="48" viewBox="0 0 48 48" fill="none" xmlns="http://www.w3.org/2000/svg">
<circle cx="24" cy="24" r="24" fill="#D9D9D9"/>
<path d="M11.308 23.262C12.144 23.262 12.866 23.528 13.436 24.06C13.968 24.592 14.272 25.276 14.272 26.112C14.272 26.948 13.968 27.67 13.436 28.202C12.828 28.734 12.144 29 11.308 29C10.472 29 9.788 28.696 9.256 28.164C8.648 27.632 8.382 26.948 8.382 26.112C8.382 25.276 8.648 24.592 9.256 24.06C9.788 23.528 10.472 23.262 11.308 23.262ZM24 23.262C24.836 23.262 25.558 23.528 26.128 24.06C26.66 24.592 26.964 25.276 26.964 26.112C26.964 26.948 26.66 27.67 26.128 28.202C25.52 28.734 24.836 29 24 29C23.164 29 22.48 28.696 21.948 28.164C21.34 27.632 21.074 26.948 21.074 26.112C21.074 25.276 21.34 24.592 21.948 24.06C22.48 23.528 23.164 23.262 24 23.262ZM36.654 23.262C37.49 23.262 38.212 23.528 38.782 24.06C39.314 24.592 39.618 25.276 39.618 26.112C39.618 26.948 39.314 27.67 38.744 28.202C38.174 28.734 37.49 29 36.654 29C35.818 29 35.134 28.696 34.564 28.164C33.994 27.632 33.728 26.948 33.728 26.112C33.728 25.276 33.994 24.592 34.564 24.06C35.134 23.528 35.818 23.262 36.654 23.262Z" fill="black"/>
</svg>
