<svg width="90" height="90" viewBox="0 0 90 90" fill="none" xmlns="http://www.w3.org/2000/svg">
<path fill-rule="evenodd" clip-rule="evenodd" d="M73.9231 15H20.0769C15.6162 15 12 18.6162 12 23.0769V66.1539C12 70.6146 15.6162 74.2308 20.0769 74.2308H73.9231C78.3838 74.2308 82 70.6146 82 66.1539V23.0769C82 18.6162 78.3838 15 73.9231 15ZM20.0769 20.385H73.9231C75.41 20.385 76.6154 21.5903 76.6154 23.0773V48.8696L62.8308 35.085L49.3154 48.9773L41.077 40.7388L17.3846 65.0773V23.0773C17.3846 21.5903 18.59 20.385 20.0769 20.385ZM21.208 68.8473H61.5926L41.1311 48.3857L21.208 68.8473ZM76.6154 66.1544C76.6154 67.6413 75.41 68.8467 73.9231 68.8467H69.1846L53.0308 52.6928L63.1538 42.7852L76.8846 56.5159L76.6154 66.1544ZM28.1542 36.5378C31.128 36.5378 33.5388 34.127 33.5388 31.1532C33.5388 28.1793 31.128 25.7686 28.1542 25.7686C25.1803 25.7686 22.7695 28.1793 22.7695 31.1532C22.7695 34.127 25.1803 36.5378 28.1542 36.5378Z" fill="#1A1A1A"/>
</svg>
