<svg width="60" height="60" viewBox="0 0 60 60" fill="none" xmlns="http://www.w3.org/2000/svg">
<path fill-rule="evenodd" clip-rule="evenodd" d="M43.125 27.5C43.125 26.4645 43.9645 25.625 45 25.625H55C56.0355 25.625 56.875 26.4645 56.875 27.5V47.5C56.875 48.5355 56.0355 49.375 55 49.375H49.5266L46.3258 52.5758C45.5936 53.3081 44.4064 53.3081 43.6742 52.5758L40.4734 49.375H27.5C26.4645 49.375 25.625 48.5355 25.625 47.5V37.5C25.625 36.4645 26.4645 35.625 27.5 35.625H43.125V27.5ZM46.875 29.375V37.5C46.875 38.5355 46.0355 39.375 45 39.375H29.375V45.625H41.25C41.7473 45.625 42.2242 45.8225 42.5758 46.1742L45 48.5983L47.4242 46.1742C47.7758 45.8225 48.2527 45.625 48.75 45.625H53.125V29.375H46.875Z" fill="#666666"/>
<path fill-rule="evenodd" clip-rule="evenodd" d="M3.125 7.5C3.125 6.46447 3.96447 5.625 5 5.625H45C46.0355 5.625 46.875 6.46447 46.875 7.5V37.5C46.875 38.5355 46.0355 39.375 45 39.375H22.0266L17.5758 43.8258C16.8436 44.5581 15.6564 44.5581 14.9242 43.8258L10.4734 39.375H5C3.96447 39.375 3.125 38.5355 3.125 37.5V7.5ZM6.875 9.375V35.625H11.25C11.7473 35.625 12.2242 35.8225 12.5758 36.1742L16.25 39.8484L19.9242 36.1742C20.2758 35.8225 20.7527 35.625 21.25 35.625H43.125V9.375H6.875Z" fill="#666666"/>
<path fill-rule="evenodd" clip-rule="evenodd" d="M21.875 22.5C21.875 21.4645 22.7145 20.625 23.75 20.625H25C26.0355 20.625 26.875 21.4645 26.875 22.5C26.875 23.5355 26.0355 24.375 25 24.375H23.75C22.7145 24.375 21.875 23.5355 21.875 22.5Z" fill="#666666"/>
<path fill-rule="evenodd" clip-rule="evenodd" d="M30.625 22.5C30.625 21.4645 31.4645 20.625 32.5 20.625H33.75C34.7855 20.625 35.625 21.4645 35.625 22.5C35.625 23.5355 34.7855 24.375 33.75 24.375H32.5C31.4645 24.375 30.625 23.5355 30.625 22.5Z" fill="#666666"/>
<path fill-rule="evenodd" clip-rule="evenodd" d="M13.125 22.5C13.125 21.4645 13.9645 20.625 15 20.625H16.25C17.2855 20.625 18.125 21.4645 18.125 22.5C18.125 23.5355 17.2855 24.375 16.25 24.375H15C13.9645 24.375 13.125 23.5355 13.125 22.5Z" fill="#666666"/>
</svg>
