<svg width="60" height="60" viewBox="0 0 60 60" fill="none" xmlns="http://www.w3.org/2000/svg">
<path fill-rule="evenodd" clip-rule="evenodd" d="M28.8287 3.53587C29.5135 2.98804 30.4865 2.98804 31.1713 3.53587L56.1713 23.5359C56.6161 23.8917 56.875 24.4304 56.875 25V55C56.875 56.0355 56.0355 56.875 55 56.875H40C38.9645 56.875 38.125 56.0355 38.125 55V34.375H21.875V55C21.875 56.0355 21.0355 56.875 20 56.875H5C3.96447 56.875 3.125 56.0355 3.125 55V25C3.125 24.4304 3.38392 23.8917 3.8287 23.5359L28.8287 3.53587ZM6.875 25.9012V53.125H18.125V32.5C18.125 31.4645 18.9645 30.625 20 30.625H40C41.0355 30.625 41.875 31.4645 41.875 32.5V53.125H53.125V25.9012L30 7.40117L6.875 25.9012Z" fill="#666666"/>
<path fill-rule="evenodd" clip-rule="evenodd" d="M30 40.625C31.0355 40.625 31.875 41.4645 31.875 42.5V55C31.875 56.0355 31.0355 56.875 30 56.875C28.9645 56.875 28.125 56.0355 28.125 55V42.5C28.125 41.4645 28.9645 40.625 30 40.625Z" fill="#666666"/>
</svg>
