<svg width="60" height="60" viewBox="0 0 60 60" fill="none" xmlns="http://www.w3.org/2000/svg">
<path d="M21.25 15L5 7.5V45L21.25 52.5L38.75 45L55 52.5V15L38.75 7.5L21.25 15Z" fill="#1A1A1A"/>
<path fill-rule="evenodd" clip-rule="evenodd" d="M3.98946 5.92063C4.52807 5.57601 5.20517 5.52963 5.78573 5.79758L21.2782 12.948L38.0114 5.77661C38.4996 5.5674 39.0535 5.57502 39.5357 5.79758L55.7857 13.2976C56.4498 13.6041 56.875 14.2687 56.875 15V52.5C56.875 53.1394 56.5491 53.7348 56.0105 54.0794C55.4719 54.424 54.7948 54.4704 54.2143 54.2024L38.7218 47.052L21.9886 54.2234C21.5004 54.4326 20.9465 54.425 20.4643 54.2024L4.21427 46.7024C3.55023 46.396 3.125 45.7314 3.125 45V7.5C3.125 6.86058 3.45085 6.26524 3.98946 5.92063ZM38.7218 9.55204L21.9886 16.7234C21.5004 16.9326 20.9465 16.925 20.4643 16.7024L6.875 10.4305V43.8003L21.2782 50.448L38.0114 43.2766C38.4996 43.0674 39.0535 43.075 39.5357 43.2976L53.125 49.5695V16.1997L38.7218 9.55204Z" fill="#1A1A1A"/>
<path fill-rule="evenodd" clip-rule="evenodd" d="M38.75 5.625C39.7855 5.625 40.625 6.46447 40.625 7.5V45C40.625 46.0355 39.7855 46.875 38.75 46.875C37.7145 46.875 36.875 46.0355 36.875 45V7.5C36.875 6.46447 37.7145 5.625 38.75 5.625Z" fill="#FAFBFC"/>
<path fill-rule="evenodd" clip-rule="evenodd" d="M21.25 13.125C22.2855 13.125 23.125 13.9645 23.125 15V52.5C23.125 53.5355 22.2855 54.375 21.25 54.375C20.2145 54.375 19.375 53.5355 19.375 52.5V15C19.375 13.9645 20.2145 13.125 21.25 13.125Z" fill="#FAFBFC"/>
<path fill-rule="evenodd" clip-rule="evenodd" d="M38.0114 5.7766C38.4995 5.5674 39.0535 5.57502 39.5357 5.79758L47.6607 9.54758C48.6009 9.98153 49.0114 11.0955 48.5774 12.0357C48.1435 12.976 47.0295 13.3864 46.0893 12.9524L38.7218 9.55204L21.9886 16.7234C21.5004 16.9326 20.9465 16.925 20.4643 16.7024L12.3393 12.9524C11.399 12.5185 10.9886 11.4045 11.4226 10.4643C11.8565 9.52404 12.9705 9.11363 13.9107 9.54758L21.2782 12.948L38.0114 5.7766Z" fill="#1A1A1A"/>
<path fill-rule="evenodd" clip-rule="evenodd" d="M38.0114 43.2766C38.4995 43.0674 39.0535 43.075 39.5357 43.2976L47.6607 47.0476C48.6009 47.4815 49.0114 48.5955 48.5774 49.5357C48.1435 50.476 47.0295 50.8864 46.0893 50.4524L38.7218 47.052L21.9886 54.2234C21.5004 54.4326 20.9465 54.425 20.4643 54.2024L12.3393 50.4524C11.399 50.0185 10.9886 48.9045 11.4226 47.9643C11.8565 47.024 12.9705 46.6136 13.9107 47.0476L21.2782 50.448L38.0114 43.2766Z" fill="#1A1A1A"/>
</svg>
