<svg width="60" height="60" viewBox="0 0 60 60" fill="none" xmlns="http://www.w3.org/2000/svg">
<path d="M21.875 15C21.875 10.5127 25.5127 6.875 30 6.875C34.4873 6.875 38.125 10.5127 38.125 15C38.125 19.4873 34.4873 23.125 30 23.125C25.5127 23.125 21.875 19.4873 21.875 15ZM30 3.125C23.4416 3.125 18.125 8.44162 18.125 15C18.125 21.5584 23.4416 26.875 30 26.875C36.5584 26.875 41.875 21.5584 41.875 15C41.875 8.44162 36.5584 3.125 30 3.125ZM30 30.625C16.5381 30.625 5.625 41.5381 5.625 55C5.625 56.0355 6.46447 56.875 7.5 56.875C8.53553 56.875 9.375 56.0355 9.375 55C9.375 43.6092 18.6092 34.375 30 34.375C41.3908 34.375 50.625 43.6092 50.625 55C50.625 56.0355 51.4645 56.875 52.5 56.875C53.5355 56.875 54.375 56.0355 54.375 55C54.375 41.5381 43.4619 30.625 30 30.625Z" fill="#666666"/>
</svg>
