<svg width="48" height="48" viewBox="0 0 48 48" fill="none" xmlns="http://www.w3.org/2000/svg">
<path d="M8 5H40C41.656 5 43 6.342 43 7.996V33.376C43 35.032 41.661 36 40 36H30.559L25.426 41.506C25.2398 41.6929 25.0186 41.8411 24.7749 41.9423C24.5313 42.0434 24.2701 42.0954 24.0063 42.0953C23.7425 42.0952 23.4813 42.043 23.2378 41.9417C22.9942 41.8404 22.773 41.692 22.587 41.505L17.429 36H8C6.344 36 5 35.029 5 33.376V7.996C4.99974 7.60215 5.07718 7.21211 5.2279 6.84824C5.37862 6.48437 5.59965 6.15381 5.87834 5.8755C6.15702 5.59719 6.48787 5.3766 6.85194 5.22637C7.21601 5.07614 7.60615 4.99921 8 5Z" fill="#23C620"/>
<path d="M22.492 9.152H25.532L34.524 32H31.676L29.244 25.6H18.748L16.316 32H13.5L22.492 9.152ZM19.58 23.392H28.412L24.092 11.968H23.964L19.58 23.392Z" fill="white"/>
</svg>
