<svg width="36" height="36" viewBox="0 0 36 36" fill="none" xmlns="http://www.w3.org/2000/svg">
<path fill-rule="evenodd" clip-rule="evenodd" d="M1.875 3.75C1.875 3.12868 2.37868 2.625 3 2.625H33C33.6213 2.625 34.125 3.12868 34.125 3.75V9.75C34.125 10.1452 33.9177 10.5114 33.5788 10.7147L32.5299 11.344C30.5111 12.5553 27.9889 12.5553 25.9701 11.344L25.5 11.062L25.0299 11.344C23.0111 12.5553 20.4889 12.5553 18.4701 11.344L18 11.062L17.5299 11.344C15.5111 12.5553 12.9889 12.5553 10.9701 11.344C10.9701 11.344 10.9701 11.344 10.9701 11.344L10.5 11.062L10.0299 11.344C10.0299 11.344 10.0299 11.344 10.0299 11.344C8.01108 12.5553 5.48895 12.5553 3.4701 11.344C3.47009 11.344 3.47011 11.344 3.4701 11.344L2.4212 10.7147C2.08234 10.5114 1.875 10.1452 1.875 9.75V3.75ZM4.125 4.875V9.11303L4.6277 9.41464C5.93401 10.1984 7.56598 10.1985 8.87231 9.41465L9.92119 8.78532C10.2775 8.57156 10.7225 8.57156 11.0788 8.78532L12.1277 9.41465C13.434 10.1985 15.066 10.1985 16.3723 9.41465L17.4212 8.78532C17.7775 8.57156 18.2225 8.57156 18.5788 8.78532L19.6277 9.41465C20.934 10.1985 22.566 10.1985 23.8723 9.41465L24.9212 8.78532C25.2775 8.57156 25.7225 8.57156 26.0788 8.78532L27.1277 9.41465C28.434 10.1985 30.066 10.1985 31.3723 9.41465L31.875 9.11304V4.875H4.125Z" fill="#1C1B1F"/>
<path fill-rule="evenodd" clip-rule="evenodd" d="M3.375 18.75C3.375 18.1287 3.87868 17.625 4.5 17.625H31.5C32.1213 17.625 32.625 18.1287 32.625 18.75V32.25C32.625 32.8713 32.1213 33.375 31.5 33.375H4.5C3.87868 33.375 3.375 32.8713 3.375 32.25V18.75ZM5.625 19.875V31.125H30.375V19.875H5.625Z" fill="#1C1B1F"/>
<path fill-rule="evenodd" clip-rule="evenodd" d="M6.75 10.875C7.37132 10.875 7.875 11.3787 7.875 12V18.75C7.875 19.3713 7.37132 19.875 6.75 19.875C6.12868 19.875 5.625 19.3713 5.625 18.75V12C5.625 11.3787 6.12868 10.875 6.75 10.875Z" fill="#1C1B1F"/>
<path fill-rule="evenodd" clip-rule="evenodd" d="M29.25 10.875C29.8713 10.875 30.375 11.3787 30.375 12V18.75C30.375 19.3713 29.8713 19.875 29.25 19.875C28.6287 19.875 28.125 19.3713 28.125 18.75V12C28.125 11.3787 28.6287 10.875 29.25 10.875Z" fill="#1C1B1F"/>
</svg>
