<svg width="64" height="64" viewBox="0 0 64 64" fill="none" xmlns="http://www.w3.org/2000/svg">
<path fill-rule="evenodd" clip-rule="evenodd" d="M0 32C0 14.3275 14.3275 0 32 0C49.6725 0 64 14.3275 64 32C64 49.6725 49.6725 64 32 64C14.3275 64 0 49.6725 0 32ZM42.0707 17.901L32 27.9717L21.9293 17.901C20.8169 16.7886 19.0133 16.7886 17.901 17.901C16.7886 19.0133 16.7886 20.8169 17.901 21.9293L27.9717 32L17.901 42.0707C16.7886 43.1831 16.7886 44.9867 17.901 46.099C19.0133 47.2114 20.8169 47.2114 21.9293 46.099L32 36.0283L42.0707 46.099C43.1831 47.2114 44.9867 47.2114 46.099 46.099C47.2114 44.9867 47.2114 43.1831 46.099 42.0707L36.0283 32L46.099 21.9293C47.2114 20.8169 47.2114 19.0133 46.099 17.901C44.9867 16.7886 43.1831 16.7886 42.0707 17.901Z" fill="black" fill-opacity="0.1"/>
<mask id="mask0_445_2577" style="mask-type:luminance" maskUnits="userSpaceOnUse" x="0" y="0" width="64" height="64">
<path fill-rule="evenodd" clip-rule="evenodd" d="M0 32C0 14.3275 14.3275 0 32 0C49.6725 0 64 14.3275 64 32C64 49.6725 49.6725 64 32 64C14.3275 64 0 49.6725 0 32ZM42.0707 17.901L32 27.9717L21.9293 17.901C20.8169 16.7886 19.0133 16.7886 17.901 17.901C16.7886 19.0133 16.7886 20.8169 17.901 21.9293L27.9717 32L17.901 42.0707C16.7886 43.1831 16.7886 44.9867 17.901 46.099C19.0133 47.2114 20.8169 47.2114 21.9293 46.099L32 36.0283L42.0707 46.099C43.1831 47.2114 44.9867 47.2114 46.099 46.099C47.2114 44.9867 47.2114 43.1831 46.099 42.0707L36.0283 32L46.099 21.9293C47.2114 20.8169 47.2114 19.0133 46.099 17.901C44.9867 16.7886 43.1831 16.7886 42.0707 17.901Z" fill="white"/>
</mask>
<g mask="url(#mask0_445_2577)">
<rect width="64" height="64" fill="#CCCCCC"/>
</g>
</svg>
