<svg width="68" height="68" viewBox="0 0 68 68" fill="none" xmlns="http://www.w3.org/2000/svg">
<path d="M34.0506 15.2805H10.1234V57.8561H49.293V36.1666L52.699 32.9144V57.8561C52.699 59.737 51.1739 61.2622 49.293 61.2622H10.1234C8.24248 61.2622 6.71738 59.737 6.71738 57.8561V15.2805C6.71738 13.3995 8.24248 11.8744 10.1234 11.8744H37.4059L37.4907 11.9593L34.0506 15.2805ZM53.5573 10.1406C54.5859 10.1922 55.5513 10.6504 56.2431 11.4137C57.152 12.1372 57.7383 13.19 57.8764 14.3433C57.7682 15.5499 57.1912 16.6667 56.269 17.4533C55.3218 18.432 47.9002 25.7647 34.2153 39.2525L33.1675 40.2852C31.5984 40.77 27.8406 41.9775 25 42.8938C25.9147 39.8736 27.0124 36.2248 27.5013 34.5001C30.4267 31.578 49.7678 12.2659 50.5029 11.5416C51.322 10.7258 52.4064 10.2303 53.5597 10.1438M53.5597 6.73792C51.5042 6.81856 49.5541 7.67176 48.0997 9.12784C47.3031 9.91447 24.7264 32.4587 24.7264 32.4587C24.5484 32.6384 24.4204 32.8604 24.3547 33.1048C23.7435 35.365 20.6784 45.3978 20.6476 45.4975C20.4913 46.0098 20.6309 46.5669 21.0102 46.9453C21.2763 47.2131 21.6388 47.3627 22.0164 47.3619C22.1644 47.3627 22.3124 47.3403 22.4538 47.2962C22.5586 47.2612 32.9123 43.9134 34.6161 43.4045C34.8406 43.3372 35.0452 43.2158 35.2124 43.0519C36.2876 41.9908 57.0382 21.5621 58.7137 19.8266C60.45 18.0388 61.314 16.1728 61.2807 14.2918C61.1485 12.2253 60.1798 10.3011 58.5981 8.96396C57.2785 7.58438 55.464 6.78524 53.5556 6.7437L53.5597 6.73792Z" fill="black"/>
</svg>
