<svg width="90" height="90" viewBox="0 0 90 90" fill="none" xmlns="http://www.w3.org/2000/svg">
<path fill-rule="evenodd" clip-rule="evenodd" d="M16.1074 74.132H73.4228C76.7114 74.132 79.5302 71.1253 80 67.6175V30.5347C80 27.0268 77.1812 24.0201 73.8926 24.0201H61.6779L60.2685 19.5101C59.3289 17.0045 56.9799 15 54.1611 15H35.3691C32.5503 15 30.2013 16.5034 29.7315 19.5101L28.3221 24.0201H16.1074C12.8188 24.0201 10 27.0268 10 30.5347V67.6175C10 71.1253 12.8188 74.132 16.1074 74.132ZM14.2282 30.535C14.2282 29.5328 15.1678 28.5305 16.1074 28.5305H31.141L33.49 21.0138C33.49 20.0115 34.4296 19.5104 35.3692 19.5104H54.1611C55.1007 19.5104 55.5705 20.0115 56.0403 21.0138L58.3893 28.5305H73.4229C74.3624 28.5305 75.302 29.5328 75.302 30.535V67.6178C75.302 68.62 74.3624 69.6223 73.4229 69.6223H16.1074C15.1678 69.6223 14.2282 68.62 14.2282 67.6178V30.535ZM44.7648 61.6045C37.248 61.6045 31.1406 55.0899 31.1406 47.072C31.1406 39.0541 37.248 32.5396 44.7648 32.5396C52.2816 32.5396 58.389 39.0541 58.389 47.072C58.389 55.0899 52.2816 61.6045 44.7648 61.6045ZM34.8993 47.0726C34.8993 41.0592 39.5973 36.5492 44.7651 36.5492C49.9329 36.5492 54.6309 41.5603 54.6309 47.0726C54.6309 53.0861 49.9329 57.5961 44.7651 57.5961C39.1275 57.5961 34.8993 52.5849 34.8993 47.0726Z" fill="#1A1A1A"/>
</svg>
