<svg width="48" height="48" viewBox="0 0 48 48" fill="none" xmlns="http://www.w3.org/2000/svg">
<path d="M8 5H40C41.656 5 43 6.342 43 7.996V33.376C43 35.032 41.661 36 40 36H30.559L25.426 41.506C25.2398 41.6929 25.0186 41.8411 24.7749 41.9423C24.5313 42.0434 24.2701 42.0954 24.0063 42.0953C23.7425 42.0952 23.4813 42.043 23.2378 41.9417C22.9942 41.8404 22.773 41.692 22.587 41.505L17.429 36H8C6.344 36 5 35.029 5 33.376V7.996C4.99974 7.60215 5.07718 7.21212 5.2279 6.84824C5.37862 6.48437 5.59965 6.15381 5.87834 5.8755C6.15702 5.5972 6.48787 5.37661 6.85194 5.22637C7.21601 5.07614 7.60615 4.99921 8 5Z" fill="#E93B3D"/>
<path d="M23.788 8.704C27.18 8.704 29.9 9.824 31.884 12.128C33.74 14.304 34.7 17.12 34.7 20.608C34.7 24.064 33.74 26.848 31.884 29.024C31.82 29.088 31.756 29.152 31.724 29.216C32.62 30.368 33.484 31.584 34.348 32.832L32.62 34.336C31.724 33.056 30.86 31.84 29.996 30.688C28.268 31.84 26.188 32.448 23.756 32.448C20.332 32.448 17.644 31.296 15.66 29.024C13.772 26.848 12.844 24.032 12.844 20.608C12.844 17.152 13.772 14.336 15.66 12.16C17.644 9.856 20.332 8.704 23.788 8.704ZM23.788 11.04C21.164 11.04 19.084 11.936 17.58 13.76C16.172 15.488 15.468 17.76 15.468 20.608C15.468 23.424 16.172 25.696 17.58 27.424C19.052 29.216 21.132 30.112 23.756 30.112C25.644 30.112 27.244 29.664 28.524 28.768C27.244 27.136 25.964 25.632 24.684 24.288L26.252 22.784C27.564 24.192 28.876 25.664 30.156 27.232C31.436 25.536 32.076 23.328 32.076 20.608C32.076 17.696 31.34 15.392 29.932 13.664C28.46 11.904 26.412 11.04 23.788 11.04Z" fill="white"/>
</svg>
