<svg width="64" height="84" viewBox="0 0 64 84" fill="none" xmlns="http://www.w3.org/2000/svg">
<path d="M2.00001 32.6976C2.00001 15.7435 15.4314 1.99965 32 1.99965C48.5686 1.99965 62 15.7435 62 32.6976C62 45.7797 54.6783 58.0433 47.7548 66.781C44.2512 71.2026 40.7541 74.84 38.134 77.3721C36.8222 78.6398 35.7258 79.6347 34.9524 80.3168C34.5656 80.658 34.2592 80.9212 34.0467 81.1015C33.9405 81.1916 33.8576 81.261 33.7999 81.3091L33.7324 81.3651L33.7131 81.381L33.7072 81.3859C33.7072 81.3859 33.7037 81.3887 32 79.2095C30.2963 81.3887 30.2949 81.3875 30.2949 81.3875L30.2869 81.381L30.2676 81.3651L30.2001 81.3091C30.1424 81.261 30.0595 81.1916 29.9533 81.1015C29.7408 80.9212 29.4344 80.658 29.0476 80.3168C28.2742 79.6347 27.1778 78.6398 25.866 77.3721C23.2459 74.84 19.7489 71.2026 16.2452 66.781C9.32171 58.0433 2.00001 45.7797 2.00001 32.6976ZM32 79.2095L33.7037 81.3887C32.7077 82.2041 31.2909 82.2029 30.2949 81.3875L32 79.2095Z" fill="#FECE2F"/>
<path d="M32 79.2095C33.7037 81.3887 33.7072 81.3859 33.7072 81.3859L33.7131 81.381L33.7324 81.3651L33.7999 81.3091C33.8576 81.261 33.9405 81.1916 34.0467 81.1015C34.2592 80.9212 34.5656 80.658 34.9524 80.3168C35.7258 79.6347 36.8222 78.6398 38.134 77.3721C40.7541 74.84 44.2512 71.2026 47.7548 66.781C54.6783 58.0433 62 45.7797 62 32.6976C62 15.7435 48.5686 1.99965 32 1.99965C15.4314 1.99965 2.00001 15.7435 2.00001 32.6976C2.00001 45.7797 9.32171 58.0433 16.2452 66.781C19.7489 71.2026 23.2459 74.84 25.866 77.3721C27.1778 78.6398 28.2742 79.6347 29.0476 80.3168C29.4344 80.658 29.7408 80.9212 29.9533 81.1015C30.0595 81.1916 30.1424 81.261 30.2001 81.3091L30.2676 81.3651L30.2869 81.381L30.2949 81.3875M32 79.2095C30.2963 81.3887 30.2949 81.3875 30.2949 81.3875M32 79.2095L33.7037 81.3887C32.7077 82.2041 31.2909 82.2029 30.2949 81.3875M32 79.2095L30.2949 81.3875" stroke="white" stroke-width="4" stroke-linejoin="round"/>
<circle cx="32.3714" cy="32.7303" r="14.2857" fill="white"/>
</svg>
