<svg width="46" height="60" viewBox="0 0 46 60" fill="none" xmlns="http://www.w3.org/2000/svg">
<path d="M2.00001 23.4883C2.00001 11.6205 11.402 1.99976 23 1.99976C34.598 1.99976 44 11.6205 44 23.4883C44 32.6458 38.8748 41.2303 34.0284 47.3467C31.5758 50.4418 29.1279 52.988 27.2938 54.7605C26.3756 55.6479 25.6081 56.3443 25.0667 56.8218C24.7959 57.0606 24.5815 57.2448 24.4327 57.371C24.3583 57.4341 24.3004 57.4827 24.2599 57.5164L24.2127 57.5556L24.1992 57.5667L24.195 57.5701C24.195 57.5701 24.1926 57.5721 23 56.0467C21.8074 57.5721 21.8064 57.5713 21.8064 57.5713L21.8008 57.5667L21.7873 57.5556L21.7401 57.5164C21.6997 57.4827 21.6417 57.4341 21.5673 57.371C21.4185 57.2448 21.2041 57.0606 20.9333 56.8218C20.3919 56.3443 19.6245 55.6479 18.7062 54.7605C16.8721 52.988 14.4242 50.4418 11.9717 47.3467C7.1252 41.2303 2.00001 32.6458 2.00001 23.4883ZM23 56.0467L24.1926 57.5721C23.4954 58.1428 22.5037 58.142 21.8064 57.5713L23 56.0467Z" fill="#FFFCF4"/>
<path d="M23 56.0467C24.1926 57.5721 24.195 57.5701 24.195 57.5701L24.1992 57.5667L24.2127 57.5556L24.2599 57.5164C24.3004 57.4827 24.3583 57.4341 24.4327 57.371C24.5815 57.2448 24.7959 57.0606 25.0667 56.8218C25.6081 56.3443 26.3756 55.6479 27.2938 54.7605C29.1279 52.988 31.5758 50.4418 34.0284 47.3467C38.8748 41.2303 44 32.6458 44 23.4883C44 11.6205 34.598 1.99976 23 1.99976C11.402 1.99976 2.00001 11.6205 2.00001 23.4883C2.00001 32.6458 7.1252 41.2303 11.9717 47.3467C14.4242 50.4418 16.8721 52.988 18.7062 54.7605C19.6245 55.6479 20.3919 56.3443 20.9333 56.8218C21.2041 57.0606 21.4185 57.2448 21.5673 57.371C21.6417 57.4341 21.6997 57.4827 21.7401 57.5164L21.7873 57.5556L21.8008 57.5667L21.8064 57.5713M23 56.0467C21.8074 57.5721 21.8064 57.5713 21.8064 57.5713M23 56.0467L24.1926 57.5721C23.4954 58.1428 22.5037 58.142 21.8064 57.5713M23 56.0467L21.8064 57.5713" stroke="#FECE2F" stroke-width="4" stroke-linejoin="round"/>
<circle cx="23.2599" cy="23.5112" r="10" fill="#FECE2F"/>
</svg>
