<svg width="50" height="60" viewBox="0 0 50 60" fill="none" xmlns="http://www.w3.org/2000/svg">
<path d="M4 25.4885C4 13.6207 13.402 4 25 4C36.598 4 46 13.6207 46 25.4885C46 34.646 40.8748 43.2306 36.0284 49.3469C33.5758 52.4421 31.1279 54.9882 29.2938 56.7607C28.3755 57.6481 27.6081 58.3446 27.0667 58.822C26.7959 59.0608 26.5815 59.2451 26.4327 59.3713C26.3583 59.4344 26.3003 59.4829 26.2599 59.5166L26.2127 59.5558L26.1992 59.5669L26.195 59.5703C26.195 59.5703 26.1926 59.5723 25 58.0469C23.8074 59.5723 23.8064 59.5715 23.8064 59.5715L23.8008 59.5669L23.7873 59.5558L23.7401 59.5166C23.6997 59.4829 23.6417 59.4344 23.5673 59.3713C23.4185 59.2451 23.2041 59.0608 22.9333 58.822C22.3919 58.3446 21.6245 57.6481 20.7062 56.7607C18.8721 54.9882 16.4242 52.4421 13.9716 49.3469C9.12519 43.2306 4 34.646 4 25.4885ZM25 58.0469L26.1926 59.5723C25.4954 60.1431 24.5036 60.1423 23.8064 59.5715L25 58.0469ZM15.4545 25.4885C15.4545 30.883 19.7282 35.256 25 35.256C30.2718 35.256 34.5455 30.883 34.5455 25.4885C34.5455 20.0941 30.2718 15.721 25 15.721C19.7282 15.721 15.4545 20.0941 15.4545 25.4885Z" fill="#333333"/>
<circle cx="25" cy="25" r="21" fill="#333333" stroke="white" stroke-width="8"/>
</svg>
